/* XPM */
static char * cpu_20_xpm[] = {
"20 20 3 1",
" 	c None",
".	c #9950B6",
",	c #8265E6",
"                    ",
"                    ",
"      , , , , ,     ",
"      , , , , ,     ",
"     ...........    ",
"     .   ,  ,  .    ",
"  ,,,.      ,  .,,, ",
"     .,,    ,  .    ",
"     .         .    ",
"  ,,,.,       ,.,,, ",
"     .         .    ",
"     .   ,   ,,.    ",
"  ,,,.   ,     .,,, ",
"     .   , ,   .    ",
"     ...........    ",
"      , , , , ,     ",
"      , , , , ,     ",
"                    ",
"                    ",
"                    "};
