/* XPM */
static char *pacman[] = {
"20 20 4 1",
".	c None",
" 	c #8C170D",
",	c #DEDE1F",
"-	c #FFFFFF",
"....................",
"...........--.......",
".........   -.......",
"........      ......",
".......        .....",
"......          ....",
".....------------...",
"......,,,,,,,,,---..",
".....,,,,,,,,,......",
"....,,,,,,,,........",
"....,,,,,,,.........",
"....,,,,,,......-...",
"....,,,,,,.....---..",
"....,,,,,,,.....-...",
"....,,,,,,,,........",
".....,,,,,,,,.......",
"......,,,,,,,,......",
".......,,,,,,,,.....",
"....................",
"...................."
};
